<?xml version="1.0" standalone="no"?>
<!DOCTYPE svg PUBLIC "-//W3C//DTD SVG 20010904//EN"
 "http://www.w3.org/TR/2001/REC-SVG-20010904/DTD/svg10.dtd">
<svg version="1.0" xmlns="http://www.w3.org/2000/svg"
 width="600.000000pt" height="600.000000pt" viewBox="0 0 600.000000 600.000000"
 preserveAspectRatio="xMidYMid meet">

<g transform="translate(0.000000,600.000000) scale(0.100000,-0.100000)"
fill="#000000" stroke="none">
<path d="M1079 4654 c-464 -84 -801 -506 -776 -974 23 -414 304 -761 705 -867
133 -35 325 -37 456 -5 98 25 226 81 310 137 l56 37 56 -37 c84 -56 212 -112
310 -137 131 -32 323 -30 455 5 98 26 233 87 306 140 l42 30 63 -41 c91 -59
204 -109 305 -134 130 -32 322 -30 454 5 98 26 233 87 306 140 l42 30 63 -41
c91 -59 204 -109 305 -134 130 -32 322 -30 456 5 628 166 906 898 546 1436
-289 433 -875 549 -1308 260 l-59 -39 -86 54 c-310 194 -715 191 -1014 -8
l-70 -46 -86 54 c-306 192 -696 192 -1001 1 l-85 -54 -85 54 c-195 122 -441
170 -666 129z m337 -224 c76 -19 199 -72 237 -102 17 -13 15 -19 -36 -101
-101 -160 -142 -306 -141 -507 0 -115 4 -150 27 -232 27 -101 75 -206 135
-296 41 -62 42 -60 -73 -116 -122 -60 -174 -71 -325 -70 -117 0 -145 4 -212
26 -123 41 -204 92 -300 188 -72 73 -93 102 -131 181 -54 113 -77 208 -77 324
0 116 23 211 77 325 39 81 59 107 137 185 98 97 177 146 296 184 85 26 98 28
211 30 67 1 120 -5 175 -19z m1157 4 c69 -16 211 -76 251 -106 19 -15 18 -17
-22 -77 -213 -320 -212 -731 3 -1056 21 -31 36 -58 34 -60 -22 -22 -140 -81
-204 -102 -71 -24 -95 -27 -220 -27 -125 0 -149 3 -220 27 -64 21 -182 80
-204 103 -2 2 10 24 27 48 49 68 119 222 144 316 26 101 31 316 9 415 -23 105
-71 222 -128 312 -63 101 -66 92 56 151 143 69 321 90 474 56z m1170 0 c70
-16 211 -76 252 -107 19 -15 19 -16 -12 -60 -54 -75 -113 -204 -140 -306 -35
-132 -37 -324 -5 -454 25 -100 75 -214 132 -303 22 -33 40 -63 40 -67 0 -13
-134 -80 -208 -105 -68 -23 -93 -26 -217 -26 -125 0 -149 3 -220 27 -63 21
-182 80 -204 102 -2 2 15 31 37 65 208 311 214 710 15 1027 -63 101 -66 92 56
151 143 69 321 90 474 56z m1172 1 c89 -18 234 -90 303 -149 171 -146 262
-341 262 -555 0 -130 -21 -218 -76 -331 -40 -80 -62 -109 -138 -185 -100 -100
-176 -146 -306 -187 -63 -19 -97 -23 -205 -23 -145 0 -200 12 -320 71 -116 56
-114 53 -67 124 208 312 214 710 15 1027 -63 101 -66 90 52 149 143 70 321 92
480 59z m-3024 -382 c111 -220 104 -485 -18 -690 -20 -35 -40 -63 -43 -63 -3
0 -23 28 -43 63 -111 187 -128 449 -40 647 37 84 73 142 86 138 7 -2 33 -45
58 -95z m1157 28 c86 -156 113 -336 77 -508 -18 -84 -97 -262 -121 -270 -16
-5 -82 114 -111 202 -24 71 -27 96 -27 220 0 125 2 148 25 217 31 91 96 211
112 205 6 -2 26 -31 45 -66z m1185 -32 c63 -124 80 -209 74 -359 -4 -87 -11
-132 -30 -187 -27 -78 -87 -195 -103 -200 -16 -5 -82 115 -111 202 -24 71 -27
95 -27 220 0 124 3 149 26 217 30 92 95 211 111 205 7 -2 34 -46 60 -98z"/>
<path d="M1454 2276 c25 -30 46 -57 46 -60 0 -3 -126 -195 -280 -426 -154
-231 -280 -424 -280 -430 0 -6 59 -10 159 -10 l160 0 51 85 51 85 310 0 309 0
37 -61 c74 -119 51 -109 240 -109 93 0 163 4 161 9 -1 5 -147 225 -323 490
l-320 480 -184 1 -183 0 46 -54z m238 -279 c9 -19 50 -89 92 -156 42 -67 76
-124 76 -127 0 -2 -87 -4 -194 -4 l-195 0 42 64 c23 35 67 107 97 160 30 52
58 95 61 96 3 0 12 -15 21 -33z"/>
<path d="M3786 2298 c16 -18 71 -78 121 -134 l91 -100 -61 13 c-47 10 -83 11
-148 3 -191 -22 -333 -103 -397 -225 -23 -43 -27 -62 -27 -140 0 -74 5 -98 24
-137 54 -109 147 -179 298 -220 112 -31 344 -31 456 0 149 41 242 106 295 207
19 38 26 70 30 131 8 140 -17 190 -237 467 l-133 167 -171 0 -171 0 30 -32z
m275 -419 c133 -58 168 -190 76 -283 -102 -101 -325 -104 -433 -4 -149 137 -1
331 240 313 37 -3 90 -15 117 -26z"/>
<path d="M4552 1713 l3 -358 145 0 145 0 3 358 2 357 -150 0 -150 0 2 -357z"/>
<path d="M2372 1808 c3 -239 4 -255 25 -294 70 -130 241 -195 481 -181 169 10
253 40 329 119 68 69 73 96 73 369 l0 239 -139 0 -139 0 -4 -224 c-3 -210 -4
-226 -24 -253 -35 -47 -78 -65 -149 -65 -77 -1 -122 22 -147 72 -16 30 -18 65
-18 253 l0 217 -146 0 -145 0 3 -252z"/>
</g>
</svg>
