<?xml version="1.0" standalone="no"?>
<!DOCTYPE svg PUBLIC "-//W3C//DTD SVG 20010904//EN"
 "http://www.w3.org/TR/2001/REC-SVG-20010904/DTD/svg10.dtd">
<svg version="1.0" xmlns="http://www.w3.org/2000/svg"
 width="1080.000000pt" height="1080.000000pt" viewBox="0 0 1080.000000 1080.000000"
 preserveAspectRatio="xMidYMid meet">

<g transform="translate(0.000000,1080.000000) scale(0.100000,-0.100000)"
fill="#000000" stroke="none">
<path d="M1515 5970 c-53 -11 -110 -35 -167 -72 -45 -28 -47 -31 -33 -52 13
-20 13 -29 -1 -82 -18 -70 -54 -153 -77 -176 -20 -20 -70 -24 -502 -43 -176
-7 -324 -10 -329 -5 -4 4 13 55 39 112 26 56 65 143 87 191 22 48 37 95 34
104 -5 13 -21 15 -106 11 -152 -7 -160 -15 -224 -234 -59 -200 -58 -198 -117
-241 l-52 -37 28 -21 c71 -50 75 -58 75 -142 0 -94 14 -148 45 -179 54 -54
182 -17 295 85 l55 50 -49 -15 c-75 -22 -105 -19 -116 12 -16 40 -12 127 6
153 36 51 141 74 472 102 254 21 302 19 302 -15 0 -8 -31 -100 -70 -205 -38
-105 -70 -202 -70 -215 0 -95 83 -64 169 63 79 116 232 374 285 480 65 129 96
231 96 318 0 70 2 68 -75 53z"/>
<path d="M10612 5747 c-42 -44 -18 -111 44 -123 69 -13 118 84 63 128 -31 26
-81 23 -107 -5z m98 -7 c24 -24 25 -48 4 -78 -31 -44 -104 -20 -104 35 0 57
61 82 100 43z"/>
<path d="M10647 5733 c-4 -3 -7 -22 -7 -42 0 -33 1 -34 14 -15 14 18 15 18 21
2 11 -29 24 -21 23 15 -1 39 -30 62 -51 40z m30 -29 c-9 -9 -28 6 -21 18 4 6
10 6 17 -1 6 -6 8 -13 4 -17z"/>
<path d="M8688 5665 c-174 -29 -293 -91 -371 -193 -43 -55 -53 -62 -124 -88
-43 -15 -111 -40 -151 -56 -71 -27 -122 -36 -122 -20 0 4 22 34 50 67 60 71
120 182 120 223 0 54 -23 65 -114 59 -91 -5 -166 -29 -332 -105 -107 -49 -282
-122 -486 -203 -166 -65 -210 -62 -144 11 71 78 109 147 114 204 4 49 2 55
-24 75 -25 20 -38 22 -89 19 -60 -4 -88 -14 -330 -118 -175 -75 -435 -172
-550 -206 -164 -47 -375 -38 -375 17 0 23 32 44 90 59 184 46 366 150 358 204
-5 33 -75 48 -198 43 -131 -6 -212 -31 -311 -95 -71 -47 -159 -131 -159 -151
0 -15 -125 -51 -174 -51 -47 0 -72 15 -138 82 -59 60 -100 72 -199 58 -93 -13
-195 -43 -279 -82 -36 -17 -96 -43 -134 -59 -114 -48 -122 -39 -41 45 109 112
138 173 96 196 -68 36 -275 -25 -576 -170 -105 -51 -141 -64 -190 -67 -66 -4
-66 -4 -171 77 l-58 45 -105 -1 c-133 -1 -197 -17 -371 -99 -74 -34 -145 -66
-157 -69 -42 -13 -25 17 51 93 41 41 82 91 92 112 16 38 16 40 -2 60 -17 19
-26 21 -89 16 -93 -8 -192 -41 -420 -142 -104 -46 -246 -102 -315 -126 -198
-66 -364 -66 -400 2 -17 31 -1 46 68 64 101 25 274 101 321 141 30 26 41 43
41 64 0 43 -29 54 -135 52 -216 -3 -437 -107 -506 -237 -16 -31 -32 -47 -49
-51 -114 -25 -260 -83 -260 -104 0 -16 30 -12 151 20 131 34 139 35 139 16 0
-20 55 -60 105 -77 54 -19 227 -16 340 5 152 28 343 84 467 137 135 57 194 79
214 79 20 0 17 -33 -5 -61 -139 -180 -146 -252 -20 -219 110 28 342 117 519
199 26 12 66 21 95 21 44 0 59 -6 123 -50 87 -59 165 -85 231 -76 56 8 222 65
405 141 187 77 192 71 81 -90 -54 -78 -69 -127 -42 -138 19 -7 124 11 197 35
36 11 123 50 195 85 71 36 163 76 205 90 106 35 143 30 222 -36 110 -91 169
-96 371 -34 l88 26 29 -32 c91 -99 292 -107 606 -26 72 19 180 54 240 79 189
77 366 137 393 134 20 -2 27 -9 29 -32 5 -42 -5 -86 -29 -125 -20 -32 -21 -33
-40 -15 -31 28 -87 24 -115 -10 -27 -31 -30 -65 -9 -105 41 -80 142 -65 515
79 318 123 584 220 600 220 34 0 44 -25 30 -77 -16 -66 -40 -113 -56 -113 -8
0 -14 4 -14 10 0 5 -14 17 -31 25 -35 19 -82 8 -105 -22 -33 -44 0 -146 52
-159 48 -12 141 4 255 44 63 21 178 62 256 89 l142 50 45 -43 c35 -33 63 -49
117 -65 144 -44 397 -6 648 96 47 19 91 35 97 35 13 0 24 -32 24 -72 0 -17 10
-34 28 -48 23 -19 35 -21 82 -16 69 7 300 74 400 116 41 18 92 39 112 47 20 9
44 13 53 10 14 -6 14 -10 0 -43 -18 -45 -93 -149 -131 -186 -16 -15 -141 -90
-279 -168 -137 -78 -259 -151 -270 -161 -17 -17 -18 -21 -5 -29 21 -13 46 -12
133 4 41 8 103 29 138 47 90 45 270 155 364 224 100 72 225 135 369 186 180
64 330 128 362 154 l29 24 -25 0 c-64 1 -275 -68 -419 -137 -62 -30 -92 -33
-73 -9 5 7 34 44 64 82 70 88 118 164 118 186 0 19 -20 29 -59 29 -26 0 -70
-18 -442 -173 -302 -127 -351 -127 -270 -4 50 77 53 103 12 112 -53 11 -137
-13 -303 -88 -184 -84 -363 -136 -493 -144 -73 -4 -85 -2 -135 24 -63 32 -76
59 -33 69 51 12 255 94 315 126 66 35 98 69 98 105 0 16 -8 27 -26 33 -34 13
-131 11 -226 -5z m29 -91 c9 -24 -44 -71 -104 -94 -151 -57 -141 22 11 84 72
30 85 31 93 10z m-2737 -23 c0 -40 -113 -101 -186 -101 -23 0 -34 5 -34 14 0
33 131 104 193 106 20 0 27 -5 27 -19z m-3810 -10 c0 -31 -144 -111 -200 -111
-27 0 -33 16 -13 36 44 43 213 103 213 75z"/>
</g>
</svg>
